<svg width="16" height="16" viewBox="0 0 16 16" fill="none"
    xmlns="http://www.w3.org/2000/svg">
    <path d="M3.13725 14.0929C2.27451 14.0929 1.53594 13.7825 0.921569 13.1616C0.30719 12.5408 0 11.7944 0 10.9226V4.58204C0 3.71022 0.30719 2.96388 0.921569 2.34303C1.53594 1.72219 2.27451 1.41176 3.13725 1.41176H12.549C13.4118 1.41176 14.1503 1.72219 14.7647 2.34303C15.3791 2.96388 15.6863 3.71022 15.6863 4.58204V10.9226C15.6863 11.7944 15.3791 12.5408 14.7647 13.1616C14.1503 13.7825 13.4118 14.0929 12.549 14.0929H3.13725ZM3.13725 4.78019H12.549C12.9281 4.78019 13.2843 4.83963 13.6176 4.95851C13.951 5.0774 14.2484 5.24912 14.5098 5.47368V4.58204C14.5098 4.02725 14.3203 3.55831 13.9412 3.17523C13.5621 2.79216 13.0981 2.60062 12.549 2.60062H3.13725C2.58824 2.60062 2.12418 2.79216 1.7451 3.17523C1.36601 3.55831 1.17647 4.02725 1.17647 4.58204V5.47368C1.43791 5.24912 1.73529 5.0774 2.06863 4.95851C2.40196 4.83963 2.75817 4.78019 3.13725 4.78019ZM1.23529 7.47492L10.5882 9.75356C10.6797 9.77998 10.7745 9.78328 10.8726 9.76346C10.9705 9.74365 11.0523 9.70072 11.1176 9.63467L14.2549 6.97957C14.085 6.67575 13.8497 6.43137 13.549 6.24644C13.2484 6.06151 12.915 5.96904 12.549 5.96904H3.13725C2.67974 5.96904 2.27451 6.11104 1.92157 6.39505C1.56863 6.67905 1.33987 7.03901 1.23529 7.47492Z" fill="#8c8c8c"/>
</svg>
