<svg width="13" height="13" viewBox="0 0 13 13" fill="none" xmlns="http://www.w3.org/2000/svg">
<g clip-path="url(#clip0_1_62)">
<mask id="mask0_1_62" style="mask-type:luminance" maskUnits="userSpaceOnUse" x="0" y="0" width="13" height="13">
<path d="M12.416 0.125755H0.416016V12.1258H12.416V0.125755Z" fill="white"/>
</mask>
<g mask="url(#mask0_1_62)">
<g opacity="0.5">
<path fill-rule="evenodd" clip-rule="evenodd" d="M6.89302 2.75076C6.89302 2.6513 6.85351 2.55592 6.78319 2.4856C6.71286 2.41527 6.61748 2.37576 6.51802 2.37576H1.54102C1.24265 2.37576 0.956499 2.49429 0.745521 2.70526C0.534542 2.91624 0.416016 3.20239 0.416016 3.50076V11.0008C0.416016 11.2992 0.534542 11.5853 0.745521 11.7963C0.956499 12.0073 1.24265 12.1258 1.54102 12.1258H9.04102C9.33939 12.1258 9.62554 12.0073 9.83652 11.7963C10.0475 11.5853 10.166 11.2992 10.166 11.0008V6.02376C10.166 5.9243 10.1265 5.82892 10.0562 5.75859C9.98586 5.68827 9.89048 5.64876 9.79102 5.64876C9.69156 5.64876 9.59618 5.68827 9.52585 5.75859C9.45553 5.82892 9.41602 5.9243 9.41602 6.02376V11.0008C9.41602 11.1003 9.37651 11.1956 9.30619 11.266C9.23586 11.3363 9.14048 11.3758 9.04102 11.3758H1.54102C1.44156 11.3758 1.34618 11.3363 1.27585 11.266C1.20552 11.1956 1.16602 11.1003 1.16602 11.0008V3.50076C1.16602 3.4013 1.20552 3.30592 1.27585 3.2356C1.34618 3.16527 1.44156 3.12576 1.54102 3.12576H6.51802C6.61748 3.12576 6.71286 3.08625 6.78319 3.01592C6.85351 2.9456 6.89302 2.85022 6.89302 2.75076Z" fill="#00FFFF"/>
<path fill-rule="evenodd" clip-rule="evenodd" d="M12.416 0.500755C12.416 0.401299 12.3765 0.305916 12.3062 0.23559C12.2358 0.165264 12.1404 0.125755 12.041 0.125755H8.29101C8.19155 0.125755 8.09617 0.165264 8.02584 0.23559C7.95551 0.305916 7.91601 0.401299 7.91601 0.500755C7.91601 0.600211 7.95551 0.695594 8.02584 0.76592C8.09617 0.836246 8.19155 0.875755 8.29101 0.875755H11.1357L5.02551 6.98526C4.99064 7.02013 4.96298 7.06152 4.94411 7.10707C4.92524 7.15263 4.91553 7.20145 4.91553 7.25076C4.91553 7.30007 4.92524 7.34889 4.94411 7.39445C4.96298 7.44 4.99064 7.48139 5.02551 7.51626C5.06037 7.55113 5.10176 7.57878 5.14732 7.59765C5.19287 7.61652 5.2417 7.62623 5.29101 7.62623C5.34031 7.62623 5.38914 7.61652 5.43469 7.59765C5.48025 7.57878 5.52164 7.55113 5.55651 7.51626L11.666 1.40601V4.25076C11.666 4.35022 11.7055 4.4456 11.7758 4.51592C11.8461 4.58625 11.9415 4.62576 12.041 4.62576C12.1404 4.62576 12.2358 4.58625 12.3062 4.51592C12.3765 4.4456 12.416 4.35022 12.416 4.25076V0.500755Z" fill="#00FFFF"/>
</g>
</g>
</g>
<defs>
<clipPath id="clip0_1_62">
<rect width="12" height="12" fill="white" transform="translate(0.416016 0.125755)"/>
</clipPath>
</defs>
</svg>
