<svg xmlns="http://www.w3.org/2000/svg" width="21" height="20" viewBox="0 0 21 20" fill="none">
    <path d="M7.4002 16.19L8.4752 15.1149L6.3752 13.0149H11.2002V11.5149H6.3752L8.4752 9.41499L7.4002 8.33999L3.4752 12.2649L7.4002 16.19ZM13.0002 11.84L16.9251 7.91499L13.0251 3.98999L11.9251 5.06499L14.0251 7.16499H9.2002V8.66499H14.0251L11.9251 10.7649L13.0002 11.84ZM10.2002 19.99C8.83353 19.99 7.54186 19.7275 6.3252 19.2025C5.10853 18.6775 4.04603 17.9608 3.13769 17.0525C2.22936 16.1442 1.51269 15.0816 0.987695 13.8649C0.462695 12.6483 0.200195 11.3567 0.200195 9.98999C0.200195 8.60666 0.462695 7.30666 0.987695 6.08999C1.51269 4.87332 2.22936 3.81499 3.13769 2.91499C4.04603 2.01499 5.10853 1.30249 6.3252 0.77749C7.54186 0.25249 8.83353 -0.0100098 10.2002 -0.0100098C11.5835 -0.0100098 12.8835 0.25249 14.1002 0.77749C15.3169 1.30249 16.3751 2.01499 17.2751 2.91499C18.1752 3.81499 18.8877 4.87332 19.4127 6.08999C19.9377 7.30666 20.2002 8.60666 20.2002 9.98999C20.2002 11.3567 19.9377 12.6483 19.4127 13.8649C18.8877 15.0816 18.1752 16.1442 17.2751 17.0525C16.3751 17.9608 15.3169 18.6775 14.1002 19.2025C12.8835 19.7275 11.5835 19.99 10.2002 19.99ZM10.2002 18.49C12.5669 18.49 14.5751 17.6608 16.2251 16.0025C17.8751 14.3442 18.7002 12.34 18.7002 9.98999C18.7002 7.62332 17.8751 5.61499 16.2251 3.96499C14.5751 2.31499 12.5669 1.48999 10.2002 1.48999C7.8502 1.48999 5.84602 2.31499 4.18769 3.96499C2.52937 5.61499 1.7002 7.62332 1.7002 9.98999C1.7002 12.34 2.52937 14.3442 4.18769 16.0025C5.84602 17.6608 7.8502 18.49 10.2002 18.49Z" fill="currentColor"/>
</svg>