<svg width="195" height="55" viewBox="0 0 195 55" fill="none"
    xmlns="http://www.w3.org/2000/svg" preserveAspectRatio="none">
    <g filter="url(#filter0_d_1_136)">
        <path d="M20.12 35V20.6H23.32L28.2 26.42L33.06 20.6H36.28V35H33.16V25.34L28.2 31.26L23.22 25.36V35H20.12ZM44.5947 35C44.0614 35 43.568 34.8667 43.1147 34.6C42.6614 34.3333 42.3014 33.9733 42.0347 33.52C41.768 33.0667 41.6347 32.5733 41.6347 32.04V23.56C41.6347 23.0133 41.768 22.52 42.0347 22.08C42.3014 21.6267 42.6614 21.2667 43.1147 21C43.568 20.7333 44.0614 20.6 44.5947 20.6H53.0747C53.608 20.6 54.0947 20.7333 54.5347 21C54.988 21.2667 55.348 21.6267 55.6147 22.08C55.8947 22.52 56.0347 23.0133 56.0347 23.56V32.04C56.0347 32.5733 55.8947 33.0667 55.6147 33.52C55.348 33.9733 54.988 34.3333 54.5347 34.6C54.0947 34.8667 53.608 35 53.0747 35H44.5947ZM44.7347 31.88H52.8947V23.72H44.7347V31.88ZM64.1572 35C63.6239 35 63.1305 34.8667 62.6772 34.6C62.2239 34.3333 61.8639 33.9733 61.5972 33.52C61.3305 33.0667 61.1972 32.5733 61.1972 32.04V23.56C61.1972 23.0133 61.3305 22.52 61.5972 22.08C61.8639 21.6267 62.2239 21.2667 62.6772 21C63.1305 20.7333 63.6239 20.6 64.1572 20.6H72.6372C73.1705 20.6 73.6572 20.7333 74.0972 21C74.5505 21.2667 74.9105 21.6267 75.1772 22.08C75.4572 22.52 75.5972 23.0133 75.5972 23.56V32.04C75.5972 32.5733 75.4572 33.0667 75.1772 33.52C74.9105 33.9733 74.5505 34.3333 74.0972 34.6C73.6572 34.8667 73.1705 35 72.6372 35H64.1572ZM64.2972 31.88H72.4572V23.72H64.2972V31.88ZM80.7997 35V20.6H83.9997L92.0597 30.2V20.6H95.1997V35H91.9997L83.8997 25.36V35H80.7997ZM100.44 35V20.6H103.64L108.52 26.42L113.38 20.6H116.6V35H113.48V25.34L108.52 31.26L103.54 25.36V35H100.44ZM122.035 35V20.6H135.335V23.72H125.175V26.24H133.355V29.36H125.175V31.88H135.335V35H122.035ZM143.228 35C142.694 35 142.201 34.8667 141.748 34.6C141.294 34.3333 140.934 33.9733 140.668 33.52C140.401 33.0667 140.268 32.5733 140.268 32.04V30.7H143.368V31.88H151.528V29.36H143.228C142.694 29.36 142.201 29.2267 141.748 28.96C141.294 28.6933 140.934 28.34 140.668 27.9C140.401 27.4467 140.268 26.9467 140.268 26.4V23.56C140.268 23.0133 140.401 22.52 140.668 22.08C140.934 21.6267 141.294 21.2667 141.748 21C142.201 20.7333 142.694 20.6 143.228 20.6H151.708C152.241 20.6 152.728 20.7333 153.168 21C153.621 21.2667 153.981 21.6267 154.248 22.08C154.528 22.52 154.668 23.0133 154.668 23.56V24.9H151.528V23.72H143.368V26.24H151.708C152.241 26.24 152.728 26.3733 153.168 26.64C153.621 26.9067 153.981 27.2667 154.248 27.72C154.528 28.16 154.668 28.6533 154.668 29.2V32.04C154.668 32.5733 154.528 33.0667 154.248 33.52C153.981 33.9733 153.621 34.3333 153.168 34.6C152.728 34.8667 152.241 35 151.708 35H143.228ZM159.89 35V20.6H162.99V26.24H171.49V20.6H174.59V35H171.49V29.36H162.99V35H159.89Z" fill="white" />
    </g>
    <defs>
        <filter id="filter0_d_1_136" x="0.120001" y="0.599998" width="194.47" height="54.4" filterUnits="userSpaceOnUse" color-interpolation-filters="sRGB">
            <feFlood flood-opacity="0" result="BackgroundImageFix"/>
            <feColorMatrix in="SourceAlpha" type="matrix" values="0 0 0 0 0 0 0 0 0 0 0 0 0 0 0 0 0 0 127 0" result="hardAlpha"/>
            <feOffset/>
            <feGaussianBlur stdDeviation="10"/>
            <feComposite in2="hardAlpha" operator="out"/>
            <feColorMatrix type="matrix" values="0 0 0 0 0 0 0 0 0 1 0 0 0 0 1 0 0 0 1 0"/>
            <feBlend mode="normal" in2="BackgroundImageFix" result="effect1_dropShadow_1_136"/>
            <feBlend mode="normal" in="SourceGraphic" in2="effect1_dropShadow_1_136" result="shape"/>
        </filter>
    </defs>
</svg>
